PathFileType	4	(X/Y/Z)	C:/Users/opensim2020/Desktop/walking_exp_matlab/subject02_walking08_straight_02.trc	
DataRate	CameraRate	NumFrames	NumMarkers	Units	OrigDataRate	OrigDataStartFrame	OrigNumFrames	
100.00	100.00	4	41	mm	100.00	1566	259	
Frame#	Time	LFHD			RFHD			LBHD			RBHD			C7			T10			CLAV			STRN			RBAK			LSHO			LUPA			LELB			LFRM			LWRA			LWRB			LFIN			RSHO			RUPA			RELB			RFRM			RWRA			RWRB			RFIN			LASI			RASI			LPSI			RPSI			LTHI			LKNE			LTIB			LANK			LHEE			LTOE			RTHI			RKNE			RTIB			RANK			RHEE			RTOE			*39			*40			
		X1	Y1	Z1	X2	Y2	Z2	X3	Y3	Z3	X4	Y4	Z4	X5	Y5	Z5	X6	Y6	Z6	X7	Y7	Z7	X8	Y8	Z8	X9	Y9	Z9	X10	Y10	Z10	X11	Y11	Z11	X12	Y12	Z12	X13	Y13	Z13	X14	Y14	Z14	X15	Y15	Z15	X16	Y16	Z16	X17	Y17	Z17	X18	Y18	Z18	X19	Y19	Z19	X20	Y20	Z20	X21	Y21	Z21	X22	Y22	Z22	X23	Y23	Z23	X24	Y24	Z24	X25	Y25	Z25	X26	Y26	Z26	X27	Y27	Z27	X28	Y28	Z28	X29	Y29	Z29	X30	Y30	Z30	X31	Y31	Z31	X32	Y32	Z32	X33	Y33	Z33	X34	Y34	Z34	X35	Y35	Z35	X36	Y36	Z36	X37	Y37	Z37	X38	Y38	Z38	X39	Y39	Z39	X40	Y40	Z40	X41	Y41	Z41	

98	0.970	1451.60217	187.20160	1745.32129	1311.53882	203.11003	1715.68335	1480.91687	308.36862	1660.96814	1343.45081	336.25671	1629.91956	1416.77429	366.84259	1521.17529	1409.21094	419.42618	1243.70471	1427.71106	230.21353	1450.51697	1420.23022	177.67451	1279.27026	1353.30688	424.01669	1346.19385	1598.71814	291.28247	1495.28027	1677.23950	311.56876	1291.81909	1680.61121	323.78076	1150.50781	1688.43933	323.56152	1018.51935	1649.21277	279.74896	889.97937	1686.48816	322.79199	895.40198	1685.59583	309.72830	829.56512	1230.27185	289.26495	1482.11389	1146.49634	322.53537	1291.28162	1127.59265	313.07635	1147.26953	1099.58325	291.43057	1031.79712	1104.70630	247.08882	903.03571	1079.04175	297.43570	903.22681	1067.56311	263.73035	839.54791	1545.08374	186.68604	976.04340	1290.51685	171.66798	978.71729	1455.29053	392.17416	1023.49060	1339.47510	391.74515	1029.72595	1603.15125	241.14366	663.83527	1587.63708	262.82840	479.99582	1573.41675	416.70306	377.79709	1542.51697	557.90302	209.48383	1481.46289	586.14850	207.81746	1577.35718	499.97192	68.05318	1220.91711	205.84488	676.99249	1267.50525	182.27361	468.99896	1262.20068	213.66718	281.90884	1302.23755	229.82484	91.14108	1359.00159	264.83530	38.24102	1293.22266	76.65800	38.14008	1370.57068	304.47720	1795.47583	-3357.18213	2845.83936	1034.17883 
99	0.980	1450.57642	178.87878	1746.37415	1310.38794	194.42085	1716.83997	1479.74866	299.97769	1662.04773	1342.16602	327.71198	1631.10205	1415.15906	358.23572	1522.48511	1407.33252	411.48129	1245.16235	1426.56604	221.75964	1451.53076	1419.14685	169.59567	1279.93347	1351.10706	415.41913	1347.79504	1597.39905	283.26447	1496.35950	1675.55591	304.85211	1292.94128	1678.55212	318.40930	1151.78613	1686.07043	319.82669	1019.87042	1646.11316	277.72867	890.74176	1683.61646	320.26062	896.52667	1681.86121	308.60989	830.33038	1229.05908	280.14099	1483.37671	1144.43323	311.87933	1292.86414	1124.73035	302.15295	1148.83240	1096.25745	279.56677	1033.66772	1101.59082	233.39265	905.18164	1075.83679	283.76184	904.99316	1064.38184	249.22386	841.99585	1544.88550	179.72319	977.45941	1289.06689	164.27754	979.47144	1453.48206	384.84686	1024.87146	1337.98608	384.35065	1030.90210	1601.42737	227.55296	665.55487	1585.24963	245.23315	481.65176	1570.90930	397.87610	378.51181	1540.41577	537.76556	208.09938	1479.52197	566.84308	205.46780	1574.27197	474.66782	68.67360	1220.19275	201.72336	677.27594	1266.81140	180.33897	468.88397	1261.87183	213.02730	282.04144	1302.53162	229.81520	91.06042	1359.08887	264.90894	38.29747	1293.06104	76.70337	38.12835	1369.58594	296.09470	1796.67529	-3360.24487	2845.18481	1034.00403 
100	0.990	1449.71497	170.48218	1747.40100	1309.49182	185.85356	1717.97058	1478.65918	291.62134	1663.01526	1341.32190	319.93848	1632.10461	1413.66418	349.76981	1523.74976	1405.54700	403.64560	1246.63269	1425.47607	213.41061	1452.48340	1418.24084	161.67247	1280.66943	1349.39453	407.33426	1349.41882	1596.21484	275.36273	1497.54431	1674.05103	298.12247	1294.11462	1676.51807	312.84900	1153.01208	1683.87183	315.44089	1021.17896	1642.79846	275.16727	891.54376	1680.90710	317.22949	897.73145	1678.09534	306.82977	831.10883	1227.62915	270.49835	1484.63904	1142.47913	301.85715	1294.13013	1121.93933	291.18430	1150.50854	1093.82495	267.22443	1035.85864	1098.94812	219.81622	907.78839	1072.89026	270.03986	906.98993	1061.27979	234.41904	844.44983	1544.56116	172.81813	978.86707	1287.66431	157.00983	980.46027	1451.77283	377.61221	1026.11316	1336.62878	377.04971	1031.97595	1599.54944	214.02451	667.22980	1582.85339	228.12253	483.36609	1568.52979	379.24866	378.38361	1537.84021	516.58203	205.31795	1477.63025	547.08527	202.01599	1571.40405	448.29858	69.10018	1219.42517	197.47310	677.24994	1266.32935	178.45000	468.83264	1261.48926	212.92537	282.12177	1302.71106	229.79440	91.12474	1359.20947	264.92148	38.33878	1292.88245	76.71170	38.06955	1368.58496	287.59485	1797.73828	-3357.33740	2845.90894	1034.06641 
101	1.000	1449.12598	161.96562	1748.44629	1308.88611	177.34520	1719.16406	1477.66467	283.29318	1663.86572	1339.96204	310.65665	1633.19666	1412.26941	341.38876	1524.92529	1403.75317	395.93762	1248.02234	1424.45007	205.13855	1453.27258	1417.44849	154.01550	1281.44165	1347.44800	399.08282	1350.84119	1594.92847	267.48895	1498.61646	1672.69568	291.33026	1295.37219	1674.64856	307.20117	1154.28528	1681.90649	310.76770	1022.50140	1639.51929	272.25891	892.43042	1678.05920	313.56079	898.74219	1674.52148	304.50916	832.01135	1226.83386	261.56445	1486.10461	1140.10437	290.63800	1295.90967	1119.32349	280.11780	1152.19287	1091.34802	254.76166	1037.41492	1096.34766	205.91872	910.33240	1069.91504	255.88409	908.84320	1058.36438	219.43491	847.03418	1544.09375	165.83813	980.35437	1286.24365	149.88390	981.49707	1450.27234	370.39206	1027.22986	1335.35046	369.80048	1032.96362	1597.78003	200.92981	668.99335	1580.38977	211.46002	484.99915	1566.38879	360.86606	377.72253	1535.76550	495.36685	202.26221	1475.73425	526.77667	197.53262	1568.92554	421.13562	69.31142	1218.71204	193.29973	677.01392	1265.41687	176.46835	468.42334	1261.35986	212.82758	282.26993	1302.91064	229.78888	91.18230	1359.35425	264.91568	38.40788	1292.67175	76.69893	38.00295	1367.73669	279.12057	1798.67822	-3360.24463	2845.15601	1034.07544 
